<!--?xml version="1.0" encoding="utf-8"?-->
<!-- Generator: Adobe Illustrator 15.1.0, SVG Export Plug-In . SVG Version: 6.00 Build 0)  -->

<svg version="1.1" id="_x32_" xmlns="http://www.w3.org/2000/svg" xmlns:xlink="http://www.w3.org/1999/xlink" x="0px" y="0px" width="512px" height="512px" viewBox="0 0 512 512" style="width: 256px; height: 256px; opacity: 1;" xml:space="preserve">
<style type="text/css">

	.st0{fill:#4B4B4B;}

</style>
<g>
	<path class="st0" d="M139.75,148.906c0.906-6,3.906-11.172,8.219-14.891c4.328-3.703,9.891-5.922,15.953-5.922h113.156
		c5.891,0,11.297,2.078,15.578,5.594c4.25,3.547,7.313,8.484,8.422,14.25l11.578,60.5l11.125-2.125l-11.594-60.5
		c-1.594-8.422-6.094-15.688-12.328-20.844c-6.219-5.156-14.203-8.188-22.781-8.188H163.922c-8.828-0.016-17.047,3.219-23.328,8.656
		c-6.297,5.406-10.734,13.031-12.031,21.781l-8.906,59.313l11.203,1.688L139.75,148.906z" style="fill: rgb(255, 255, 255);"></path>
	<path class="st0" d="M453.047,252.141c-9.031-12.797-23.703-20.422-39.391-20.422h-354c-17.094,0-32.922,9.063-41.563,23.828
		l-0.234,0.391L0,301.859l10.547,4.109l17.531-45.047c6.656-11.078,18.641-17.891,31.578-17.891h354
		c12,0,23.219,5.813,30.125,15.609l50.109,75.313l9.438-6.266l-50.234-75.484L453.047,252.141z" style="fill: rgb(255, 255, 255);"></path>
	<polygon class="st0" points="512,125.828 509.563,114.766 323.156,155.906 325.594,166.969 	" style="fill: rgb(255, 255, 255);"></polygon>
	<path class="st0" d="M135.875,319.375c-13.047,0-23.625,10.578-23.625,23.625c0,13.031,10.578,23.609,23.625,23.609
		c13.031,0,23.609-10.578,23.609-23.609C159.484,329.953,148.906,319.375,135.875,319.375z" style="fill: rgb(255, 255, 255);"></path>
	<path class="st0" d="M203.656,319.375c-13.047,0-23.609,10.578-23.609,23.625c0,13.031,10.563,23.609,23.609,23.609
		c13.031,0,23.609-10.578,23.609-23.609C227.266,329.953,216.688,319.375,203.656,319.375z" style="fill: rgb(255, 255, 255);"></path>
	<path class="st0" d="M271.438,319.375c-13.047,0-23.625,10.578-23.625,23.625c0,13.031,10.578,23.609,23.625,23.609
		c13.031,0,23.609-10.578,23.609-23.609C295.047,329.953,284.469,319.375,271.438,319.375z" style="fill: rgb(255, 255, 255);"></path>
	<path class="st0" d="M339.219,319.375c-13.031,0-23.625,10.578-23.625,23.625c0,13.031,10.594,23.609,23.625,23.609
		s23.609-10.578,23.609-23.609C362.828,329.953,352.25,319.375,339.219,319.375z" style="fill: rgb(255, 255, 255);"></path>
	<path class="st0" d="M69.625,310.313c-8.734,0-15.828,7.078-15.828,15.828s7.094,15.828,15.828,15.828
		c8.75,0,15.844-7.078,15.844-15.828S78.375,310.313,69.625,310.313z" style="fill: rgb(255, 255, 255);"></path>
	<path class="st0" d="M408.25,310.313c-8.719,0-15.828,7.078-15.828,15.828s7.109,15.828,15.828,15.828
		c8.75,0,15.828-7.078,15.828-15.828S417,310.313,408.25,310.313z" style="fill: rgb(255, 255, 255);"></path>
	<path class="st0" d="M428.031,293.781c-6.219-4.219-13.781-6.672-21.813-6.672H69.625c-5.359,0-10.5,1.094-15.188,3.078
		c-7,2.969-12.938,7.906-17.156,14.125c-4.203,6.234-6.688,13.766-6.688,21.828c0,5.359,1.094,10.219,3.047,14.516
		c1.453,3.234,3.359,6.125,5.578,8.766c3.281,3.953,7.219,7.313,11.406,10.5c4.172,3.172,8.641,6.172,13.109,9.297l0.078,0.063
		l26.625,17.141c10.938,7.063,23.703,10.813,36.734,10.813h221.516c13.016,0,25.766-3.75,36.719-10.813l26.609-17.141l0.094-0.063
		c3.984-2.781,7.938-5.453,11.703-8.25c2.844-2.094,5.563-4.25,8.063-6.594c3.781-3.5,7.141-7.438,9.563-12.125
		c1.188-2.344,2.156-4.875,2.813-7.563s0.984-5.547,0.984-8.547c0-5.375-1.094-10.516-3.078-15.188
		C439.188,303.938,434.25,298,428.031,293.781z M431.875,336c-0.969,2.156-2.281,4.172-3.938,6.156
		c-2.484,2.984-5.75,5.859-9.563,8.75c-3.781,2.891-8.125,5.797-12.656,8.969l-26.453,17.031c-9.109,5.875-19.734,9-30.578,9
		H127.172c-10.859,0-21.484-3.125-30.609-9l-26.438-17.031c-4.031-2.813-7.906-5.422-11.359-8c-2.641-1.938-5.016-3.859-7.109-5.797
		c-3.125-2.922-5.563-5.844-7.188-9.016c-0.813-1.578-1.438-3.25-1.875-5.031c-0.422-1.781-0.656-3.719-0.656-5.891
		c0-3.828,0.766-7.453,2.156-10.766c2.109-4.969,5.641-9.219,10.063-12.219c4.438-3,9.734-4.734,15.469-4.734h336.594
		c3.813,0,7.438,0.781,10.75,2.172c4.969,2.125,9.219,5.641,12.219,10.063c3,4.438,4.734,9.734,4.734,15.484
		C433.906,330,433.188,333.109,431.875,336z" style="fill: rgb(255, 255, 255);"></path>
</g>
</svg>
